<?xml version="1.0" encoding="UTF-8" standalone="no"?>
<!DOCTYPE svg PUBLIC "-//W3C//DTD SVG 1.1//EN" "http://www.w3.org/Graphics/SVG/1.1/DTD/svg11.dtd">
<!-- Generiert durch Microsoft Visio, SVG Export repo-branch.svg Page-1 -->
<svg xmlns="http://www.w3.org/2000/svg" xmlns:xlink="http://www.w3.org/1999/xlink" xmlns:ev="http://www.w3.org/2001/xml-events"
		xmlns:v="http://schemas.microsoft.com/visio/2003/SVGExtensions/" width="11.0203in" height="10.5412in"
		viewBox="0 0 793.458 758.969" xml:space="preserve" color-interpolation-filters="sRGB" class="st19">
	<v:documentProperties v:langID="1031" v:metric="true" v:viewMarkup="false">
		<v:userDefs>
			<v:ud v:nameU="msvNoAutoConnect" v:val="VT0(0):26"/>
			<v:ud v:nameU="visV14CFF" v:prompt="" v:val="VT0(1):26"/>
			<v:ud v:nameU="visFlowchartType" v:prompt="" v:val="VT4(CrossFunctional)"/>
		</v:userDefs>
	</v:documentProperties>

	<style type="text/css">
	<![CDATA[
		.st1 {fill:#000000;stroke:#c7c8c8;stroke-width:0.25}
		.st2 {fill:#ededed;stroke:#90aadb;stroke-dasharray:6,6;stroke-width:2}
		.st3 {fill:#ededed;stroke:none;stroke-width:0.25}
		.st4 {fill:#000000;font-family:Montserrat;font-size:1.5em}
		.st5 {fill:none;stroke:none;stroke-width:2}
		.st6 {fill:#c9c9c9;stroke:none;stroke-width:0.25}
		.st7 {fill:#ededed;stroke:#a8d08d;stroke-dasharray:6,6;stroke-width:2}
		.st8 {stroke:#000000;stroke-width:2.75}
		.st9 {marker-end:url(#mrkr13-51);stroke:#9966ff;stroke-linecap:round;stroke-linejoin:round;stroke-width:2}
		.st10 {fill:#9966ff;fill-opacity:1;stroke:#9966ff;stroke-opacity:1;stroke-width:0.38167938931298}
		.st11 {fill:#90aadb;stroke:none;stroke-width:2}
		.st12 {fill:#a8d08d;stroke:none;stroke-width:2}
		.st13 {fill:#9966ff;stroke:none;stroke-width:2}
		.st14 {fill:#ededed;stroke:#ffc000;stroke-dasharray:6,6;stroke-width:2}
		.st15 {fill:#ffc000;stroke:none;stroke-width:2}
		.st16 {fill:#000000;stroke:#ededed;stroke-width:4.5}
		.st17 {fill:#ed7d31;stroke:none;stroke-width:2}
		.st18 {fill:none;stroke:#ed7d31;stroke-dasharray:6,6;stroke-width:2}
		.st19 {fill:none;fill-rule:evenodd;font-size:12px;overflow:visible;stroke-linecap:square;stroke-miterlimit:3}
	]]>
	</style>

	<defs id="Markers">
		<g id="lend13">
			<path d="M 3 1 L 0 0 L 3 -1 L 3 1 " style="stroke:none"/>
		</g>
		<marker id="mrkr13-51" class="st10" v:arrowType="13" v:arrowSize="3" v:setback="7.86" refX="-7.86" orient="auto"
				markerUnits="strokeWidth" overflow="visible">
			<use xlink:href="#lend13" transform="scale(-2.62,-2.62) "/>
		</marker>
	</defs>
	<g v:mID="0" v:index="1" v:groupContext="foregroundPage">
		<v:userDefs>
			<v:ud v:nameU="msvThemeOrder" v:val="VT0(0):26"/>
		</v:userDefs>
		<title>Zeichenblatt-1</title>
		<v:pageProperties v:drawingScale="0.0393701" v:pageScale="0.0393701" v:drawingUnits="24" v:shadowOffsetX="8.50394"
				v:shadowOffsetY="-8.50394"/>
		<v:layer v:name="Verbinder" v:index="0"/>
		<g id="shape131-1" v:mID="131" v:groupContext="shape" transform="translate(340.157,-118.74)">
			<title>Rechteck.131</title>
			<v:userDefs>
				<v:ud v:nameU="visVersion" v:val="VT0(15):26"/>
			</v:userDefs>
			<rect x="0" y="756.134" width="358.583" height="2.83465" class="st1"/>
		</g>
		<g id="shape25-3" v:mID="25" v:groupContext="shape" transform="translate(30.3465,-355.197)">
			<title>Rechteck.25</title>
			<v:userDefs>
				<v:ud v:nameU="visVersion" v:val="VT0(15):26"/>
			</v:userDefs>
			<path d="M0 758.97 L732.52 758.97 L732.52 603.06 L0 603.06 L0 758.97 Z" class="st2"/>
		</g>
		<g id="group37-5" transform="translate(272.709,-444.914)" v:mID="37" v:groupContext="group">
			<title>Tabelle.37</title>
		</g>
		<g id="shape23-6" v:mID="23" v:groupContext="shape" transform="translate(159.323,-452.992)">
			<title>Rechteck.23</title>
			<v:userDefs>
				<v:ud v:nameU="visVersion" v:val="VT0(15):26"/>
			</v:userDefs>
			<rect x="0" y="756.134" width="538" height="2.83465" class="st1"/>
		</g>
		<g id="shape42-8" v:mID="42" v:groupContext="shape" transform="translate(53.0236,-444.914)">
			<title>Rechteck</title>
			<desc>Master</desc>
			<v:userDefs>
				<v:ud v:nameU="visVersion" v:val="VT0(15):26"/>
			</v:userDefs>
			<v:textBlock v:margins="rect(4,4,4,4)" v:tabSpace="42.5197"/>
			<v:textRect cx="49.6063" cy="749.473" width="99.22" height="18.9921"/>
			<rect x="0" y="739.977" width="99.2126" height="18.9921" class="st3"/>
			<text x="19.28" y="754.87" class="st4" v:langID="1031"><v:paragraph v:horizAlign="1"/><v:tabList/>Master</text>		</g>
		<g id="shape52-11" v:mID="52" v:groupContext="shape" transform="translate(54.4409,-431.024)">
			<title>Tabelle.52</title>
			<rect x="0" y="712.197" width="676.898" height="46.7717" class="st5"/>
		</g>
		<g id="shape36-13" v:mID="36" v:groupContext="shape" transform="translate(30.3465,-482.756)">
			<title>Tabelle.36</title>
			<desc>YourUsername/SpongePowered</desc>
			<v:textBlock v:margins="rect(2,2,2,2)" v:tabSpace="42.5197"/>
			<v:textRect cx="366.261" cy="744.796" width="732.53" height="28.3464"/>
			<rect x="0" y="730.622" width="732.522" height="28.3464" class="st6"/>
			<text x="222.29" y="750.2" class="st4" v:langID="1031"><v:paragraph v:horizAlign="1"/><v:tabList/>YourUsername/SpongePowered</text>		</g>
		<g id="shape60-16" v:mID="60" v:groupContext="shape" transform="translate(279.795,-391.339)">
			<title>Rechteck.60</title>
			<v:userDefs>
				<v:ud v:nameU="visVersion" v:val="VT0(15):26"/>
			</v:userDefs>
			<rect x="0" y="756.134" width="414.693" height="2.83465" class="st1"/>
		</g>
		<g id="shape65-18" v:mID="65" v:groupContext="shape" transform="translate(53.0236,-383.26)">
			<title>Rechteck.65</title>
			<desc>Feature 1</desc>
			<v:userDefs>
				<v:ud v:nameU="visVersion" v:val="VT0(15):26"/>
			</v:userDefs>
			<v:textBlock v:margins="rect(4,4,4,4)" v:tabSpace="42.5197"/>
			<v:textRect cx="49.6063" cy="749.473" width="99.22" height="18.9921"/>
			<rect x="0" y="739.977" width="99.2126" height="18.9921" class="st3"/>
			<text x="9.68" y="754.87" class="st4" v:langID="1031"><v:paragraph v:horizAlign="1"/><v:tabList/>Feature 1</text>		</g>
		<g id="shape66-21" v:mID="66" v:groupContext="shape" transform="translate(54.4409,-369.37)">
			<title>Tabelle.66</title>
			<rect x="0" y="712.197" width="676.898" height="46.7717" class="st5"/>
		</g>
		<g id="shape74-23" v:mID="74" v:groupContext="shape" transform="translate(30.5892,-82.315)">
			<title>Rechteck.74</title>
			<v:userDefs>
				<v:ud v:nameU="visVersion" v:val="VT0(15):26"/>
			</v:userDefs>
			<path d="M0 758.97 L732.52 758.97 L732.52 552.03 L0 552.03 L0 758.97 Z" class="st7"/>
		</g>
		<g id="group75-25" transform="translate(272.709,-223.063)" v:mID="75" v:groupContext="group">
			<title>Tabelle.75</title>
		</g>
		<g id="shape76-26" v:mID="76" v:groupContext="shape" transform="translate(148.819,-231.142)">
			<title>Rechteck.76</title>
			<v:userDefs>
				<v:ud v:nameU="visVersion" v:val="VT0(15):26"/>
			</v:userDefs>
			<rect x="0" y="756.134" width="548.504" height="2.83465" class="st1"/>
		</g>
		<g id="shape80-28" v:mID="80" v:groupContext="shape" transform="translate(42.5197,-223.063)">
			<title>Rechteck.80</title>
			<desc>Master</desc>
			<v:userDefs>
				<v:ud v:nameU="visVersion" v:val="VT0(15):26"/>
			</v:userDefs>
			<v:textBlock v:margins="rect(4,4,4,4)" v:tabSpace="42.5197"/>
			<v:textRect cx="41.3983" cy="749.473" width="82.8" height="18.9921"/>
			<rect x="0" y="739.977" width="82.7967" height="18.9921" class="st3"/>
			<text x="11.07" y="754.87" class="st4" v:langID="1031"><v:paragraph v:horizAlign="1"/><v:tabList/>Master</text>		</g>
		<g id="shape81-31" v:mID="81" v:groupContext="shape" transform="translate(54.4409,-209.173)">
			<title>Tabelle.81</title>
			<rect x="0" y="712.197" width="676.898" height="46.7717" class="st5"/>
		</g>
		<g id="shape82-33" v:mID="82" v:groupContext="shape" transform="translate(30.3465,-260.906)">
			<title>Tabelle.82</title>
			<desc>YourLocalFolder</desc>
			<v:textBlock v:margins="rect(2,2,2,2)" v:tabSpace="42.5197"/>
			<v:textRect cx="366.261" cy="744.796" width="732.53" height="28.3464"/>
			<rect x="0" y="730.622" width="732.522" height="28.3464" class="st6"/>
			<text x="293.61" y="750.2" class="st4" v:langID="1031"><v:paragraph v:horizAlign="1"/><v:tabList/>YourLocalFolder</text>		</g>
		<g id="shape83-36" v:mID="83" v:groupContext="shape" transform="translate(327.736,-169.488)">
			<title>Rechteck.83</title>
			<v:userDefs>
				<v:ud v:nameU="visVersion" v:val="VT0(15):26"/>
			</v:userDefs>
			<rect x="0" y="756.134" width="366.752" height="2.83465" class="st1"/>
		</g>
		<g id="shape87-38" v:mID="87" v:groupContext="shape" transform="translate(43.937,-161.41)">
			<title>Rechteck.87</title>
			<desc>Feature 1</desc>
			<v:userDefs>
				<v:ud v:nameU="visVersion" v:val="VT0(15):26"/>
			</v:userDefs>
			<v:textBlock v:margins="rect(4,4,4,4)" v:tabSpace="42.5197"/>
			<v:textRect cx="49.6063" cy="749.473" width="99.22" height="18.9921"/>
			<rect x="0" y="739.977" width="99.2126" height="18.9921" class="st3"/>
			<text x="9.68" y="754.87" class="st4" v:langID="1031"><v:paragraph v:horizAlign="1"/><v:tabList/>Feature 1</text>		</g>
		<g id="shape88-41" v:mID="88" v:groupContext="shape" transform="translate(54.4409,-147.52)">
			<title>Tabelle.88</title>
			<rect x="0" y="712.197" width="676.898" height="46.7717" class="st5"/>
		</g>
		<g id="shape89-43" v:mID="89" v:groupContext="shape" v:layerMember="0" transform="translate(148.819,-232.559)">
			<title>Dynamischer Verbinder.89</title>
			<path d="M0 758.97 L102.76 758.97 A28.3465 28.3465 0 0 1 131.1 787.32 L131.1 792.28 A28.3465 28.3465 -180 0 0 159.45
						 820.62 L545.67 820.62" class="st8"/>
		</g>
		<g id="shape90-46" v:mID="90" v:groupContext="shape" v:layerMember="0" transform="translate(389.642,-355.197)">
			<title>Dynamischer Verbinder.90</title>
			<path d="M6.97 758.97 L6.97 780.23 L7.21 780.23 L7.21 809.19" class="st9"/>
		</g>
		<g id="shape91-52" v:mID="91" v:groupContext="shape" transform="translate(30.3465,-307.739)">
			<title>Rechteck.91</title>
			<desc>Your Fork</desc>
			<v:userDefs>
				<v:ud v:nameU="visVersion" v:val="VT0(15):26"/>
			</v:userDefs>
			<v:textBlock v:margins="rect(4,4,4,4)" v:tabSpace="42.5197"/>
			<v:textRect cx="56.6929" cy="744.796" width="113.39" height="28.3464"/>
			<rect x="0" y="730.622" width="113.386" height="28.3464" class="st11"/>
			<text x="13.89" y="750.2" class="st4" v:langID="1031"><v:paragraph v:horizAlign="1"/><v:tabList/>Your Fork</text>		</g>
		<g id="shape92-55" v:mID="92" v:groupContext="shape" transform="translate(30.5892,-30.3465)">
			<title>Rechteck.92</title>
			<desc>Your local Clone</desc>
			<v:userDefs>
				<v:ud v:nameU="visVersion" v:val="VT0(15):26"/>
			</v:userDefs>
			<v:textBlock v:margins="rect(4,4,4,4)" v:tabSpace="42.5197"/>
			<v:textRect cx="85.0394" cy="744.796" width="170.08" height="28.3464"/>
			<rect x="0" y="730.622" width="170.079" height="28.3464" class="st12"/>
			<text x="12.52" y="750.2" class="st4" v:langID="1031"><v:paragraph v:horizAlign="1"/><v:tabList/>Your local Clone</text>		</g>
		<g id="shape95-58" v:mID="95" v:groupContext="shape" transform="translate(413.024,-307.739)">
			<title>Rechteck.95</title>
			<desc>Cloning</desc>
			<v:userDefs>
				<v:ud v:nameU="visVersion" v:val="VT0(15):26"/>
			</v:userDefs>
			<v:textBlock v:margins="rect(4,4,4,4)" v:tabSpace="42.5197"/>
			<v:textRect cx="49.6063" cy="744.796" width="99.22" height="28.3464"/>
			<rect x="0" y="730.622" width="99.2126" height="28.3464" class="st13"/>
			<text x="14.8" y="750.2" class="st4" v:langID="1031"><v:paragraph v:horizAlign="1"/><v:tabList/>Cloning</text>		</g>
		<g id="shape97-61" v:mID="97" v:groupContext="shape" transform="translate(30.3465,-572.717)">
			<title>Rechteck.97</title>
			<v:userDefs>
				<v:ud v:nameU="visVersion" v:val="VT0(15):26"/>
			</v:userDefs>
			<path d="M0 758.97 L732.52 758.97 L732.52 603.06 L0 603.06 L0 758.97 Z" class="st14"/>
		</g>
		<g id="group98-63" transform="translate(272.709,-662.433)" v:mID="98" v:groupContext="group">
			<title>Tabelle.98</title>
		</g>
		<g id="shape99-64" v:mID="99" v:groupContext="shape" transform="translate(159.323,-670.512)">
			<title>Rechteck.99</title>
			<v:userDefs>
				<v:ud v:nameU="visVersion" v:val="VT0(15):26"/>
			</v:userDefs>
			<rect x="0" y="756.134" width="538" height="2.83465" class="st1"/>
		</g>
		<g id="shape103-66" v:mID="103" v:groupContext="shape" transform="translate(53.0236,-662.433)">
			<title>Rechteck.103</title>
			<desc>Master</desc>
			<v:userDefs>
				<v:ud v:nameU="visVersion" v:val="VT0(15):26"/>
			</v:userDefs>
			<v:textBlock v:margins="rect(4,4,4,4)" v:tabSpace="42.5197"/>
			<v:textRect cx="49.6063" cy="749.473" width="99.22" height="18.9921"/>
			<rect x="0" y="739.977" width="99.2126" height="18.9921" class="st3"/>
			<text x="19.28" y="754.87" class="st4" v:langID="1031"><v:paragraph v:horizAlign="1"/><v:tabList/>Master</text>		</g>
		<g id="shape104-69" v:mID="104" v:groupContext="shape" transform="translate(54.4409,-648.544)">
			<title>Tabelle.104</title>
			<rect x="0" y="712.197" width="676.898" height="46.7717" class="st5"/>
		</g>
		<g id="shape105-71" v:mID="105" v:groupContext="shape" transform="translate(30.3465,-700.276)">
			<title>Tabelle.105</title>
			<desc>SpongePowered</desc>
			<v:textBlock v:margins="rect(2,2,2,2)" v:tabSpace="42.5197"/>
			<v:textRect cx="366.261" cy="744.796" width="732.53" height="28.3464"/>
			<rect x="0" y="730.622" width="732.522" height="28.3464" class="st6"/>
			<text x="291.91" y="750.2" class="st4" v:langID="1031"><v:paragraph v:horizAlign="1"/><v:tabList/>SpongePowered</text>		</g>
		<g id="shape106-74" v:mID="106" v:groupContext="shape" transform="translate(279.795,-608.858)">
			<title>Rechteck.106</title>
			<v:userDefs>
				<v:ud v:nameU="visVersion" v:val="VT0(15):26"/>
			</v:userDefs>
			<rect x="0" y="756.134" width="414.693" height="2.83465" class="st1"/>
		</g>
		<g id="shape110-76" v:mID="110" v:groupContext="shape" transform="translate(53.0236,-600.78)">
			<title>Rechteck.110</title>
			<desc>Feature 1</desc>
			<v:userDefs>
				<v:ud v:nameU="visVersion" v:val="VT0(15):26"/>
			</v:userDefs>
			<v:textBlock v:margins="rect(4,4,4,4)" v:tabSpace="42.5197"/>
			<v:textRect cx="49.6063" cy="749.473" width="99.22" height="18.9921"/>
			<rect x="0" y="739.977" width="99.2126" height="18.9921" class="st3"/>
			<text x="9.68" y="754.87" class="st4" v:langID="1031"><v:paragraph v:horizAlign="1"/><v:tabList/>Feature 1</text>		</g>
		<g id="shape111-79" v:mID="111" v:groupContext="shape" transform="translate(54.4409,-586.89)">
			<title>Tabelle.111</title>
			<rect x="0" y="712.197" width="676.898" height="46.7717" class="st5"/>
		</g>
		<g id="shape112-81" v:mID="112" v:groupContext="shape" v:layerMember="0" transform="translate(152.236,-671.929)">
			<title>Dynamischer Verbinder.112</title>
			<path d="M0 758.97 L53.12 758.97 A28.3465 28.3465 0 0 1 81.46 787.32 L81.46 792.28 A28.3465 28.3465 -180 0 0 109.81 820.62
						 L542.25 820.62" class="st8"/>
		</g>
		<g id="shape113-84" v:mID="113" v:groupContext="shape" v:layerMember="0" transform="translate(389.521,-572.717)">
			<title>Dynamischer Verbinder.113</title>
			<path d="M7.09 758.97 L7.09 804.86" class="st9"/>
		</g>
		<g id="shape114-89" v:mID="114" v:groupContext="shape" transform="translate(413.024,-529.885)">
			<title>Rechteck.114</title>
			<desc>Forking</desc>
			<v:userDefs>
				<v:ud v:nameU="visVersion" v:val="VT0(15):26"/>
			</v:userDefs>
			<v:textBlock v:margins="rect(4,4,4,4)" v:tabSpace="42.5197"/>
			<v:textRect cx="49.6063" cy="744.796" width="99.22" height="28.3464"/>
			<rect x="0" y="730.622" width="99.2126" height="28.3464" class="st13"/>
			<text x="15.62" y="750.2" class="st4" v:langID="1031"><v:paragraph v:horizAlign="1"/><v:tabList/>Forking</text>		</g>
		<g id="shape115-92" v:mID="115" v:groupContext="shape" transform="translate(30.3465,-529.885)">
			<title>Rechteck.115</title>
			<desc>Our Repository</desc>
			<v:userDefs>
				<v:ud v:nameU="visVersion" v:val="VT0(15):26"/>
			</v:userDefs>
			<v:textBlock v:margins="rect(4,4,4,4)" v:tabSpace="42.5197"/>
			<v:textRect cx="85.0394" cy="744.796" width="170.08" height="28.3464"/>
			<rect x="0" y="730.622" width="170.079" height="28.3464" class="st15"/>
			<text x="18.06" y="750.2" class="st4" v:langID="1031"><v:paragraph v:horizAlign="1"/><v:tabList/>Our Repository</text>		</g>
		<g id="shape84-95" v:mID="84" v:groupContext="shape" transform="translate(327.736,-161.41)">
			<title>Kreis.84</title>
			<v:userDefs>
				<v:ud v:nameU="visVersion" v:val="VT0(15):26"/>
			</v:userDefs>
			<path d="M0 749.47 A9.49606 9.49606 0 1 1 18.99 749.47 A9.49606 9.49606 0 0 1 0 749.47 Z" class="st16"/>
		</g>
		<g id="shape85-97" v:mID="85" v:groupContext="shape" transform="translate(377.083,-161.41)">
			<title>Kreis.85</title>
			<v:userDefs>
				<v:ud v:nameU="visVersion" v:val="VT0(15):26"/>
			</v:userDefs>
			<path d="M0 749.47 A9.49606 9.49606 0 1 1 18.99 749.47 A9.49606 9.49606 0 0 1 0 749.47 Z" class="st16"/>
		</g>
		<g id="shape86-99" v:mID="86" v:groupContext="shape" transform="translate(424.422,-161.41)">
			<title>Kreis.86</title>
			<v:userDefs>
				<v:ud v:nameU="visVersion" v:val="VT0(15):26"/>
			</v:userDefs>
			<path d="M0 749.47 A9.49606 9.49606 0 1 1 18.99 749.47 A9.49606 9.49606 0 0 1 0 749.47 Z" class="st16"/>
		</g>
		<g id="shape71-101" v:mID="71" v:groupContext="shape" v:layerMember="0" transform="translate(152.236,-454.41)">
			<title>Dynamischer Verbinder</title>
			<path d="M0 758.97 L53.12 758.97 A28.3465 28.3465 0 0 1 81.46 787.32 L81.46 792.28 A28.3465 28.3465 -180 0 0 109.81 820.62
						 L542.25 820.62" class="st8"/>
		</g>
		<g id="shape64-104" v:mID="64" v:groupContext="shape" transform="translate(424.422,-383.26)">
			<title>Kreis.64</title>
			<v:userDefs>
				<v:ud v:nameU="visVersion" v:val="VT0(15):26"/>
			</v:userDefs>
			<path d="M0 749.47 A9.49606 9.49606 0 1 1 18.99 749.47 A9.49606 9.49606 0 0 1 0 749.47 Z" class="st16"/>
		</g>
		<g id="shape63-106" v:mID="63" v:groupContext="shape" transform="translate(377.083,-383.26)">
			<title>Kreis.63</title>
			<v:userDefs>
				<v:ud v:nameU="visVersion" v:val="VT0(15):26"/>
			</v:userDefs>
			<path d="M0 749.47 A9.49606 9.49606 0 1 1 18.99 749.47 A9.49606 9.49606 0 0 1 0 749.47 Z" class="st16"/>
		</g>
		<g id="shape62-108" v:mID="62" v:groupContext="shape" transform="translate(327.736,-383.26)">
			<title>Kreis.62</title>
			<v:userDefs>
				<v:ud v:nameU="visVersion" v:val="VT0(15):26"/>
			</v:userDefs>
			<path d="M0 749.47 A9.49606 9.49606 0 1 1 18.99 749.47 A9.49606 9.49606 0 0 1 0 749.47 Z" class="st16"/>
		</g>
		<g id="shape32-110" v:mID="32" v:groupContext="shape" transform="translate(172.042,-444.914)">
			<title>Kreis.32</title>
			<v:userDefs>
				<v:ud v:nameU="visVersion" v:val="VT0(15):26"/>
			</v:userDefs>
			<path d="M0 749.47 A9.49606 9.49606 0 1 1 18.99 749.47 A9.49606 9.49606 0 0 1 0 749.47 Z" class="st16"/>
		</g>
		<g id="shape107-112" v:mID="107" v:groupContext="shape" transform="translate(327.736,-600.78)">
			<title>Kreis.107</title>
			<v:userDefs>
				<v:ud v:nameU="visVersion" v:val="VT0(15):26"/>
			</v:userDefs>
			<path d="M0 749.47 A9.49606 9.49606 0 1 1 18.99 749.47 A9.49606 9.49606 0 0 1 0 749.47 Z" class="st16"/>
		</g>
		<g id="shape108-114" v:mID="108" v:groupContext="shape" transform="translate(377.083,-600.78)">
			<title>Kreis.108</title>
			<v:userDefs>
				<v:ud v:nameU="visVersion" v:val="VT0(15):26"/>
			</v:userDefs>
			<path d="M0 749.47 A9.49606 9.49606 0 1 1 18.99 749.47 A9.49606 9.49606 0 0 1 0 749.47 Z" class="st16"/>
		</g>
		<g id="shape109-116" v:mID="109" v:groupContext="shape" transform="translate(424.422,-600.78)">
			<title>Kreis.109</title>
			<v:userDefs>
				<v:ud v:nameU="visVersion" v:val="VT0(15):26"/>
			</v:userDefs>
			<path d="M0 749.47 A9.49606 9.49606 0 1 1 18.99 749.47 A9.49606 9.49606 0 0 1 0 749.47 Z" class="st16"/>
		</g>
		<g id="shape100-118" v:mID="100" v:groupContext="shape" transform="translate(172.042,-662.433)">
			<title>Kreis.100</title>
			<v:userDefs>
				<v:ud v:nameU="visVersion" v:val="VT0(15):26"/>
			</v:userDefs>
			<path d="M0 749.47 A9.49606 9.49606 0 1 1 18.99 749.47 A9.49606 9.49606 0 0 1 0 749.47 Z" class="st16"/>
		</g>
		<g id="shape116-120" v:mID="116" v:groupContext="shape" transform="translate(41.811,-110.661)">
			<title>Rechteck.116</title>
			<desc>Feature/YourFeature</desc>
			<v:userDefs>
				<v:ud v:nameU="visVersion" v:val="VT0(15):26"/>
			</v:userDefs>
			<v:textBlock v:margins="rect(4,4,4,4)" v:tabSpace="42.5197"/>
			<v:textRect cx="102.756" cy="749.473" width="205.52" height="18.9921"/>
			<rect x="0" y="739.977" width="205.512" height="18.9921" class="st3"/>
			<text x="10.76" y="754.87" class="st4" v:langID="1031"><v:paragraph v:horizAlign="1"/><v:tabList/>Feature/YourFeature</text>		</g>
		<g id="shape124-123" v:mID="124" v:groupContext="shape" transform="translate(223.228,-30.3465)">
			<title>Rechteck.124</title>
			<desc>Your local Branch</desc>
			<v:userDefs>
				<v:ud v:nameU="visVersion" v:val="VT0(15):26"/>
			</v:userDefs>
			<v:textBlock v:margins="rect(4,4,4,4)" v:tabSpace="42.5197"/>
			<v:textRect cx="102.756" cy="744.796" width="205.52" height="28.3464"/>
			<rect x="0" y="730.622" width="205.512" height="28.3464" class="st17"/>
			<text x="23.81" y="750.2" class="st4" v:langID="1031"><v:paragraph v:horizAlign="1"/><v:tabList/>Your local Branch</text>		</g>
		<g id="shape119-126" v:mID="119" v:groupContext="shape" v:layerMember="0" transform="translate(148.819,-232.559)">
			<title>Dynamischer Verbinder.119</title>
			<path d="M0 758.97 L77.95 758.97 A28.3465 28.3465 0 0 1 106.3 787.32 L106.3 843.02 A28.3465 28.3465 -180 0 0 134.65 871.37
						 L549.92 871.37" class="st8"/>
		</g>
		<g id="shape77-129" v:mID="77" v:groupContext="shape" transform="translate(172.042,-223.063)">
			<title>Kreis.77</title>
			<v:userDefs>
				<v:ud v:nameU="visVersion" v:val="VT0(15):26"/>
			</v:userDefs>
			<path d="M0 749.47 A9.49606 9.49606 0 1 1 18.99 749.47 A9.49606 9.49606 0 0 1 0 749.47 Z" class="st16"/>
		</g>
		<g id="shape133-131" v:mID="133" v:groupContext="shape" transform="translate(42.5197,-93.5433)">
			<title>Rechteck.133</title>
			<v:userDefs>
				<v:ud v:nameU="visVersion" v:val="VT0(15):26"/>
			</v:userDefs>
			<path d="M0 758.97 L708.66 758.97 L708.66 706.53 L0 706.53 L0 758.97 Z" class="st18"/>
		</g>
	</g>
</svg>
