<?xml version="1.0" encoding="UTF-8" standalone="no"?>
<!DOCTYPE svg PUBLIC "-//W3C//DTD SVG 1.1//EN" "http://www.w3.org/Graphics/SVG/1.1/DTD/svg11.dtd">
<!-- Generiert durch Microsoft Visio, SVG Export repo-pr.svg Page-1 -->
<svg xmlns="http://www.w3.org/2000/svg" xmlns:xlink="http://www.w3.org/1999/xlink" xmlns:ev="http://www.w3.org/2001/xml-events"
		xmlns:v="http://schemas.microsoft.com/visio/2003/SVGExtensions/" width="11.5771in" height="8.09034in"
		viewBox="0 0 833.549 582.504" xml:space="preserve" color-interpolation-filters="sRGB" class="st19">
	<v:documentProperties v:langID="1031" v:metric="true" v:viewMarkup="false">
		<v:userDefs>
			<v:ud v:nameU="msvNoAutoConnect" v:val="VT0(0):26"/>
			<v:ud v:nameU="visV14CFF" v:prompt="" v:val="VT0(1):26"/>
			<v:ud v:nameU="visFlowchartType" v:prompt="" v:val="VT4(CrossFunctional)"/>
		</v:userDefs>
	</v:documentProperties>

	<style type="text/css">
	<![CDATA[
		.st1 {fill:none;stroke:none;stroke-width:2}
		.st2 {fill:#ededed;stroke:#90aadb;stroke-dasharray:6,6;stroke-width:2}
		.st3 {fill:#000000;stroke:#c7c8c8;stroke-width:0.25}
		.st4 {fill:#ededed;stroke:none;stroke-width:0.25}
		.st5 {fill:#000000;font-family:Montserrat;font-size:1.5em}
		.st6 {fill:#c9c9c9;stroke:none;stroke-width:0.25}
		.st7 {stroke:#000000;stroke-width:2.75}
		.st8 {fill:#90aadb;stroke:none;stroke-width:2}
		.st9 {fill:#ffc000;stroke:none;stroke-width:2}
		.st10 {fill:#000000;stroke:#ededed;stroke-width:4.5}
		.st11 {fill:#ed7d31;stroke:none;stroke-width:2}
		.st12 {fill:none;stroke:#ed7d31;stroke-dasharray:6,6;stroke-width:2}
		.st13 {fill:#a8d08d;stroke:none;stroke-width:2}
		.st14 {fill:#ededed;stroke:#ffc000;stroke-dasharray:6,6;stroke-width:2}
		.st15 {fill:none;stroke:#a8d08d;stroke-dasharray:6,6;stroke-width:2}
		.st16 {marker-end:url(#mrkr13-117);stroke:#a8d08d;stroke-linecap:round;stroke-linejoin:round;stroke-width:2}
		.st17 {fill:#a8d08d;fill-opacity:1;stroke:#a8d08d;stroke-opacity:1;stroke-width:0.44247787610619}
		.st18 {stroke:#000000;stroke-width:2.5}
		.st19 {fill:none;fill-rule:evenodd;font-size:12px;overflow:visible;stroke-linecap:square;stroke-miterlimit:3}
	]]>
	</style>

	<defs id="Markers">
		<g id="lend13">
			<path d="M 3 1 L 0 0 L 3 -1 L 3 1 " style="stroke:none"/>
		</g>
		<marker id="mrkr13-117" class="st17" v:arrowType="13" v:arrowSize="2" v:setback="6.78" refX="-6.78" orient="auto"
				markerUnits="strokeWidth" overflow="visible">
			<use xlink:href="#lend13" transform="scale(-2.26,-2.26) "/>
		</marker>
	</defs>
	<g v:mID="0" v:index="1" v:groupContext="foregroundPage">
		<v:userDefs>
			<v:ud v:nameU="msvThemeOrder" v:val="VT0(0):26"/>
		</v:userDefs>
		<title>Zeichenblatt-1</title>
		<v:pageProperties v:drawingScale="0.0393701" v:pageScale="0.0393701" v:drawingUnits="24" v:shadowOffsetX="8.50394"
				v:shadowOffsetY="-8.50394"/>
		<v:layer v:name="Verbinder" v:index="0"/>
		<g id="group37-1" transform="translate(274.709,-266.449)" v:mID="37" v:groupContext="group">
			<title>Tabelle.37</title>
		</g>
		<g id="shape52-2" v:mID="52" v:groupContext="shape" transform="translate(56.4409,-252.559)">
			<title>Tabelle.52</title>
			<rect x="0" y="535.733" width="676.898" height="46.7717" class="st1"/>
		</g>
		<g id="shape66-4" v:mID="66" v:groupContext="shape" transform="translate(56.4409,-190.906)">
			<title>Tabelle.66</title>
			<rect x="0" y="535.733" width="676.898" height="46.7717" class="st1"/>
		</g>
		<g id="shape74-6" v:mID="74" v:groupContext="shape" transform="translate(30.5892,-82.315)">
			<title>Rechteck.74</title>
			<v:userDefs>
				<v:ud v:nameU="visVersion" v:val="VT0(15):26"/>
			</v:userDefs>
			<path d="M0 582.5 L732.52 582.5 L732.52 375.57 L0 375.57 L0 582.5 Z" class="st2"/>
		</g>
		<g id="group75-8" transform="translate(272.709,-223.063)" v:mID="75" v:groupContext="group">
			<title>Tabelle.75</title>
		</g>
		<g id="shape76-9" v:mID="76" v:groupContext="shape" transform="translate(148.819,-231.142)">
			<title>Rechteck.76</title>
			<v:userDefs>
				<v:ud v:nameU="visVersion" v:val="VT0(15):26"/>
			</v:userDefs>
			<rect x="0" y="579.67" width="548.504" height="2.83465" class="st3"/>
		</g>
		<g id="shape80-11" v:mID="80" v:groupContext="shape" transform="translate(42.5197,-223.063)">
			<title>Rechteck.80</title>
			<desc>Master</desc>
			<v:userDefs>
				<v:ud v:nameU="visVersion" v:val="VT0(15):26"/>
			</v:userDefs>
			<v:textBlock v:margins="rect(4,4,4,4)" v:tabSpace="42.5197"/>
			<v:textRect cx="41.3983" cy="573.008" width="82.8" height="18.9921"/>
			<rect x="0" y="563.512" width="82.7967" height="18.9921" class="st4"/>
			<text x="11.07" y="578.41" class="st5" v:langID="1031"><v:paragraph v:horizAlign="1"/><v:tabList/>Master</text>		</g>
		<g id="shape81-14" v:mID="81" v:groupContext="shape" transform="translate(54.4409,-209.173)">
			<title>Tabelle.81</title>
			<rect x="0" y="535.733" width="676.898" height="46.7717" class="st1"/>
		</g>
		<g id="shape82-16" v:mID="82" v:groupContext="shape" transform="translate(30.3465,-260.906)">
			<title>Tabelle.82</title>
			<desc>YourUsername/SpongePowered</desc>
			<v:textBlock v:margins="rect(2,2,2,2)" v:tabSpace="42.5197"/>
			<v:textRect cx="366.261" cy="568.331" width="732.53" height="28.3464"/>
			<rect x="0" y="554.158" width="732.522" height="28.3464" class="st6"/>
			<text x="222.29" y="573.73" class="st5" v:langID="1031"><v:paragraph v:horizAlign="1"/><v:tabList/>YourUsername/SpongePowered</text>		</g>
		<g id="shape83-19" v:mID="83" v:groupContext="shape" transform="translate(327.736,-169.488)">
			<title>Rechteck.83</title>
			<v:userDefs>
				<v:ud v:nameU="visVersion" v:val="VT0(15):26"/>
			</v:userDefs>
			<rect x="0" y="579.67" width="366.752" height="2.83465" class="st3"/>
		</g>
		<g id="shape87-21" v:mID="87" v:groupContext="shape" transform="translate(43.937,-161.41)">
			<title>Rechteck.87</title>
			<desc>Feature 1</desc>
			<v:userDefs>
				<v:ud v:nameU="visVersion" v:val="VT0(15):26"/>
			</v:userDefs>
			<v:textBlock v:margins="rect(4,4,4,4)" v:tabSpace="42.5197"/>
			<v:textRect cx="49.6063" cy="573.008" width="99.22" height="18.9921"/>
			<rect x="0" y="563.512" width="99.2126" height="18.9921" class="st4"/>
			<text x="9.68" y="578.41" class="st5" v:langID="1031"><v:paragraph v:horizAlign="1"/><v:tabList/>Feature 1</text>		</g>
		<g id="shape88-24" v:mID="88" v:groupContext="shape" transform="translate(54.4409,-147.52)">
			<title>Tabelle.88</title>
			<rect x="0" y="535.733" width="676.898" height="46.7717" class="st1"/>
		</g>
		<g id="shape89-26" v:mID="89" v:groupContext="shape" v:layerMember="0" transform="translate(148.819,-232.559)">
			<title>Dynamischer Verbinder.89</title>
			<path d="M0 582.5 L102.76 582.5 A28.3465 28.3465 0 0 1 131.1 610.85 L131.1 615.81 A28.3465 28.3465 -180 0 0 159.45 644.16
						 L545.67 644.16" class="st7"/>
		</g>
		<g id="shape91-29" v:mID="91" v:groupContext="shape" transform="translate(28.3465,-30.3465)">
			<title>Rechteck.91</title>
			<desc>Your Fork</desc>
			<v:userDefs>
				<v:ud v:nameU="visVersion" v:val="VT0(15):26"/>
			</v:userDefs>
			<v:textBlock v:margins="rect(4,4,4,4)" v:tabSpace="42.5197"/>
			<v:textRect cx="56.6929" cy="568.331" width="113.39" height="28.3464"/>
			<rect x="0" y="554.158" width="113.386" height="28.3464" class="st8"/>
			<text x="13.89" y="573.73" class="st5" v:langID="1031"><v:paragraph v:horizAlign="1"/><v:tabList/>Your Fork</text>		</g>
		<g id="shape92-32" v:mID="92" v:groupContext="shape" transform="translate(30.5892,-303.425)">
			<title>Rechteck.92</title>
			<desc>Our Repository</desc>
			<v:userDefs>
				<v:ud v:nameU="visVersion" v:val="VT0(15):26"/>
			</v:userDefs>
			<v:textBlock v:margins="rect(4,4,4,4)" v:tabSpace="42.5197"/>
			<v:textRect cx="85.0394" cy="568.331" width="170.08" height="28.3464"/>
			<rect x="0" y="554.158" width="170.079" height="28.3464" class="st9"/>
			<text x="18.06" y="573.73" class="st5" v:langID="1031"><v:paragraph v:horizAlign="1"/><v:tabList/>Our Repository</text>		</g>
		<g id="shape84-35" v:mID="84" v:groupContext="shape" transform="translate(327.736,-161.41)">
			<title>Kreis.84</title>
			<v:userDefs>
				<v:ud v:nameU="visVersion" v:val="VT0(15):26"/>
			</v:userDefs>
			<path d="M0 573.01 A9.49606 9.49606 0 1 1 18.99 573.01 A9.49606 9.49606 0 0 1 0 573.01 Z" class="st10"/>
		</g>
		<g id="shape85-37" v:mID="85" v:groupContext="shape" transform="translate(377.083,-161.41)">
			<title>Kreis.85</title>
			<v:userDefs>
				<v:ud v:nameU="visVersion" v:val="VT0(15):26"/>
			</v:userDefs>
			<path d="M0 573.01 A9.49606 9.49606 0 1 1 18.99 573.01 A9.49606 9.49606 0 0 1 0 573.01 Z" class="st10"/>
		</g>
		<g id="shape86-39" v:mID="86" v:groupContext="shape" transform="translate(424.422,-161.41)">
			<title>Kreis.86</title>
			<v:userDefs>
				<v:ud v:nameU="visVersion" v:val="VT0(15):26"/>
			</v:userDefs>
			<path d="M0 573.01 A9.49606 9.49606 0 1 1 18.99 573.01 A9.49606 9.49606 0 0 1 0 573.01 Z" class="st10"/>
		</g>
		<g id="shape116-41" v:mID="116" v:groupContext="shape" transform="translate(41.811,-110.661)">
			<title>Rechteck.116</title>
			<desc>Feature/YourFeature</desc>
			<v:userDefs>
				<v:ud v:nameU="visVersion" v:val="VT0(15):26"/>
			</v:userDefs>
			<v:textBlock v:margins="rect(4,4,4,4)" v:tabSpace="42.5197"/>
			<v:textRect cx="102.756" cy="573.008" width="205.52" height="18.9921"/>
			<rect x="0" y="563.512" width="205.512" height="18.9921" class="st4"/>
			<text x="10.76" y="578.41" class="st5" v:langID="1031"><v:paragraph v:horizAlign="1"/><v:tabList/>Feature/YourFeature</text>		</g>
		<g id="shape124-44" v:mID="124" v:groupContext="shape" transform="translate(152.362,-30.3465)">
			<title>Rechteck.124</title>
			<desc>Your Branch</desc>
			<v:userDefs>
				<v:ud v:nameU="visVersion" v:val="VT0(15):26"/>
			</v:userDefs>
			<v:textBlock v:margins="rect(4,4,4,4)" v:tabSpace="42.5197"/>
			<v:textRect cx="65.5512" cy="568.331" width="131.11" height="28.3464"/>
			<rect x="0" y="554.158" width="131.102" height="28.3464" class="st11"/>
			<text x="10.21" y="573.73" class="st5" v:langID="1031"><v:paragraph v:horizAlign="1"/><v:tabList/>Your Branch</text>		</g>
		<g id="shape119-47" v:mID="119" v:groupContext="shape" v:layerMember="0" transform="translate(148.819,-232.559)">
			<title>Dynamischer Verbinder.119</title>
			<path d="M0 582.5 L77.95 582.5 A28.3465 28.3465 0 0 1 106.3 610.85 L106.3 666.56 A28.3465 28.3465 -180 0 0 134.65 694.91
						 L191.34 694.91" class="st7"/>
		</g>
		<g id="shape131-50" v:mID="131" v:groupContext="shape" transform="translate(340.157,-118.74)">
			<title>Rechteck.131</title>
			<v:userDefs>
				<v:ud v:nameU="visVersion" v:val="VT0(15):26"/>
			</v:userDefs>
			<rect x="0" y="579.67" width="358.583" height="2.83465" class="st3"/>
		</g>
		<g id="shape122-52" v:mID="122" v:groupContext="shape" transform="translate(448.219,-110.661)">
			<title>Kreis.122</title>
			<v:userDefs>
				<v:ud v:nameU="visVersion" v:val="VT0(15):26"/>
			</v:userDefs>
			<path d="M0 573.01 A9.49606 9.49606 0 1 1 18.99 573.01 A9.49606 9.49606 0 0 1 0 573.01 Z" class="st10"/>
		</g>
		<g id="shape121-54" v:mID="121" v:groupContext="shape" transform="translate(400.879,-110.661)">
			<title>Kreis.121</title>
			<v:userDefs>
				<v:ud v:nameU="visVersion" v:val="VT0(15):26"/>
			</v:userDefs>
			<path d="M0 573.01 A9.49606 9.49606 0 1 1 18.99 573.01 A9.49606 9.49606 0 0 1 0 573.01 Z" class="st10"/>
		</g>
		<g id="shape120-56" v:mID="120" v:groupContext="shape" transform="translate(351.533,-110.661)">
			<title>Kreis.120</title>
			<v:userDefs>
				<v:ud v:nameU="visVersion" v:val="VT0(15):26"/>
			</v:userDefs>
			<path d="M0 573.01 A9.49606 9.49606 0 1 1 18.99 573.01 A9.49606 9.49606 0 0 1 0 573.01 Z" class="st10"/>
		</g>
		<g id="shape77-58" v:mID="77" v:groupContext="shape" transform="translate(172.042,-223.063)">
			<title>Kreis.77</title>
			<v:userDefs>
				<v:ud v:nameU="visVersion" v:val="VT0(15):26"/>
			</v:userDefs>
			<path d="M0 573.01 A9.49606 9.49606 0 1 1 18.99 573.01 A9.49606 9.49606 0 0 1 0 573.01 Z" class="st10"/>
		</g>
		<g id="shape133-60" v:mID="133" v:groupContext="shape" transform="translate(41.811,-99.2126)">
			<title>Rechteck.133</title>
			<v:userDefs>
				<v:ud v:nameU="visVersion" v:val="VT0(15):26"/>
			</v:userDefs>
			<path d="M0 582.5 L709.37 582.5 L709.37 541 L0 541 L0 582.5 Z" class="st12"/>
		</g>
		<g id="shape136-62" v:mID="136" v:groupContext="shape" transform="translate(607.449,-303.425)">
			<title>Rechteck.136</title>
			<desc>Pull Request</desc>
			<v:userDefs>
				<v:ud v:nameU="visVersion" v:val="VT0(15):26"/>
			</v:userDefs>
			<v:textBlock v:margins="rect(4,4,4,4)" v:tabSpace="42.5197"/>
			<v:textRect cx="77.8314" cy="568.331" width="155.67" height="28.3464"/>
			<rect x="0" y="554.158" width="155.663" height="28.3464" class="st13"/>
			<text x="21.27" y="573.73" class="st5" v:langID="1031"><v:paragraph v:horizAlign="1"/><v:tabList/>Pull Request</text>		</g>
		<g id="shape137-65" v:mID="137" v:groupContext="shape" transform="translate(30.5892,-345.221)">
			<title>Rechteck.137</title>
			<v:userDefs>
				<v:ud v:nameU="visVersion" v:val="VT0(15):26"/>
			</v:userDefs>
			<path d="M0 582.5 L732.52 582.5 L732.52 375.57 L0 375.57 L0 582.5 Z" class="st14"/>
		</g>
		<g id="group138-67" transform="translate(272.709,-485.969)" v:mID="138" v:groupContext="group">
			<title>Tabelle.138</title>
		</g>
		<g id="shape139-68" v:mID="139" v:groupContext="shape" transform="translate(148.819,-494.048)">
			<title>Rechteck.139</title>
			<v:userDefs>
				<v:ud v:nameU="visVersion" v:val="VT0(15):26"/>
			</v:userDefs>
			<rect x="0" y="579.67" width="548.504" height="2.83465" class="st3"/>
		</g>
		<g id="shape142-70" v:mID="142" v:groupContext="shape" transform="translate(42.5197,-485.969)">
			<title>Rechteck.142</title>
			<desc>Master</desc>
			<v:userDefs>
				<v:ud v:nameU="visVersion" v:val="VT0(15):26"/>
			</v:userDefs>
			<v:textBlock v:margins="rect(4,4,4,4)" v:tabSpace="42.5197"/>
			<v:textRect cx="41.3983" cy="573.008" width="82.8" height="18.9921"/>
			<rect x="0" y="563.512" width="82.7967" height="18.9921" class="st4"/>
			<text x="11.07" y="578.41" class="st5" v:langID="1031"><v:paragraph v:horizAlign="1"/><v:tabList/>Master</text>		</g>
		<g id="shape143-73" v:mID="143" v:groupContext="shape" transform="translate(54.4409,-472.079)">
			<title>Tabelle.143</title>
			<rect x="0" y="535.733" width="676.898" height="46.7717" class="st1"/>
		</g>
		<g id="shape144-75" v:mID="144" v:groupContext="shape" transform="translate(30.3465,-523.811)">
			<title>Tabelle.144</title>
			<desc>SpongePowered</desc>
			<v:textBlock v:margins="rect(2,2,2,2)" v:tabSpace="42.5197"/>
			<v:textRect cx="366.261" cy="568.331" width="732.53" height="28.3464"/>
			<rect x="0" y="554.158" width="732.522" height="28.3464" class="st6"/>
			<text x="291.91" y="573.73" class="st5" v:langID="1031"><v:paragraph v:horizAlign="1"/><v:tabList/>SpongePowered</text>		</g>
		<g id="shape145-78" v:mID="145" v:groupContext="shape" transform="translate(327.736,-432.394)">
			<title>Rechteck.145</title>
			<v:userDefs>
				<v:ud v:nameU="visVersion" v:val="VT0(15):26"/>
			</v:userDefs>
			<rect x="0" y="579.67" width="271.791" height="2.83465" class="st3"/>
		</g>
		<g id="shape146-80" v:mID="146" v:groupContext="shape" transform="translate(43.937,-424.315)">
			<title>Rechteck.146</title>
			<desc>Feature 1</desc>
			<v:userDefs>
				<v:ud v:nameU="visVersion" v:val="VT0(15):26"/>
			</v:userDefs>
			<v:textBlock v:margins="rect(4,4,4,4)" v:tabSpace="42.5197"/>
			<v:textRect cx="49.6063" cy="573.008" width="99.22" height="18.9921"/>
			<rect x="0" y="563.512" width="99.2126" height="18.9921" class="st4"/>
			<text x="9.68" y="578.41" class="st5" v:langID="1031"><v:paragraph v:horizAlign="1"/><v:tabList/>Feature 1</text>		</g>
		<g id="shape147-83" v:mID="147" v:groupContext="shape" transform="translate(54.4409,-410.426)">
			<title>Tabelle.147</title>
			<rect x="0" y="535.733" width="676.898" height="46.7717" class="st1"/>
		</g>
		<g id="shape148-85" v:mID="148" v:groupContext="shape" v:layerMember="0" transform="translate(148.819,-495.465)">
			<title>Dynamischer Verbinder.148</title>
			<path d="M0 582.5 L113.39 582.5 A28.3465 28.3465 0 0 1 141.73 610.85 L141.73 615.81 A28.3465 28.3465 -180 0 0 170.08
						 644.16 L450.71 644.16" class="st7"/>
		</g>
		<g id="shape149-88" v:mID="149" v:groupContext="shape" transform="translate(327.736,-424.315)">
			<title>Kreis.149</title>
			<v:userDefs>
				<v:ud v:nameU="visVersion" v:val="VT0(15):26"/>
			</v:userDefs>
			<path d="M0 573.01 A9.49606 9.49606 0 1 1 18.99 573.01 A9.49606 9.49606 0 0 1 0 573.01 Z" class="st10"/>
		</g>
		<g id="shape150-90" v:mID="150" v:groupContext="shape" transform="translate(377.083,-424.315)">
			<title>Kreis.150</title>
			<v:userDefs>
				<v:ud v:nameU="visVersion" v:val="VT0(15):26"/>
			</v:userDefs>
			<path d="M0 573.01 A9.49606 9.49606 0 1 1 18.99 573.01 A9.49606 9.49606 0 0 1 0 573.01 Z" class="st10"/>
		</g>
		<g id="shape151-92" v:mID="151" v:groupContext="shape" transform="translate(424.422,-424.315)">
			<title>Kreis.151</title>
			<v:userDefs>
				<v:ud v:nameU="visVersion" v:val="VT0(15):26"/>
			</v:userDefs>
			<path d="M0 573.01 A9.49606 9.49606 0 1 1 18.99 573.01 A9.49606 9.49606 0 0 1 0 573.01 Z" class="st10"/>
		</g>
		<g id="shape152-94" v:mID="152" v:groupContext="shape" transform="translate(41.811,-373.567)">
			<title>Rechteck.152</title>
			<desc>Feature/YourFeature</desc>
			<v:userDefs>
				<v:ud v:nameU="visVersion" v:val="VT0(15):26"/>
			</v:userDefs>
			<v:textBlock v:margins="rect(4,4,4,4)" v:tabSpace="42.5197"/>
			<v:textRect cx="102.756" cy="573.008" width="205.52" height="18.9921"/>
			<rect x="0" y="563.512" width="205.512" height="18.9921" class="st4"/>
			<text x="10.76" y="578.41" class="st5" v:langID="1031"><v:paragraph v:horizAlign="1"/><v:tabList/>Feature/YourFeature</text>		</g>
		<g id="shape153-97" v:mID="153" v:groupContext="shape" v:layerMember="0" transform="translate(148.819,-495.465)">
			<title>Dynamischer Verbinder.153</title>
			<path d="M0 582.5 L77.95 582.5 A28.3465 28.3465 0 0 1 106.3 610.85 L106.3 666.56 A28.3465 28.3465 -180 0 0 134.65 694.91
						 L191.34 694.91" class="st7"/>
		</g>
		<g id="shape154-100" v:mID="154" v:groupContext="shape" transform="translate(340.157,-381.646)">
			<title>Rechteck.154</title>
			<v:userDefs>
				<v:ud v:nameU="visVersion" v:val="VT0(15):26"/>
			</v:userDefs>
			<rect x="0" y="579.67" width="170.079" height="2.83465" class="st3"/>
		</g>
		<g id="shape155-102" v:mID="155" v:groupContext="shape" transform="translate(448.219,-373.567)">
			<title>Kreis.155</title>
			<v:userDefs>
				<v:ud v:nameU="visVersion" v:val="VT0(15):26"/>
			</v:userDefs>
			<path d="M0 573.01 A9.49606 9.49606 0 1 1 18.99 573.01 A9.49606 9.49606 0 0 1 0 573.01 Z" class="st10"/>
		</g>
		<g id="shape156-104" v:mID="156" v:groupContext="shape" transform="translate(400.879,-373.567)">
			<title>Kreis.156</title>
			<v:userDefs>
				<v:ud v:nameU="visVersion" v:val="VT0(15):26"/>
			</v:userDefs>
			<path d="M0 573.01 A9.49606 9.49606 0 1 1 18.99 573.01 A9.49606 9.49606 0 0 1 0 573.01 Z" class="st10"/>
		</g>
		<g id="shape157-106" v:mID="157" v:groupContext="shape" transform="translate(351.533,-373.567)">
			<title>Kreis.157</title>
			<v:userDefs>
				<v:ud v:nameU="visVersion" v:val="VT0(15):26"/>
			</v:userDefs>
			<path d="M0 573.01 A9.49606 9.49606 0 1 1 18.99 573.01 A9.49606 9.49606 0 0 1 0 573.01 Z" class="st10"/>
		</g>
		<g id="shape158-108" v:mID="158" v:groupContext="shape" transform="translate(172.042,-485.969)">
			<title>Kreis.158</title>
			<v:userDefs>
				<v:ud v:nameU="visVersion" v:val="VT0(15):26"/>
			</v:userDefs>
			<path d="M0 573.01 A9.49606 9.49606 0 1 1 18.99 573.01 A9.49606 9.49606 0 0 1 0 573.01 Z" class="st10"/>
		</g>
		<g id="shape159-110" v:mID="159" v:groupContext="shape" transform="translate(41.811,-362.118)">
			<title>Rechteck.159</title>
			<v:userDefs>
				<v:ud v:nameU="visVersion" v:val="VT0(15):26"/>
			</v:userDefs>
			<path d="M0 582.5 L709.37 582.5 L709.37 541 L0 541 L0 582.5 Z" class="st15"/>
		</g>
		<g id="shape160-112" v:mID="160" v:groupContext="shape" v:layerMember="0" transform="translate(744.094,-119.966)">
			<title>Dynamischer Verbinder</title>
			<path d="M7.09 582.5 L41.11 582.5 L41.11 319.6 L20.65 319.6" class="st16"/>
		</g>
		<g id="shape162-118" v:mID="162" v:groupContext="shape" v:layerMember="0" transform="translate(697.323,-495.465)">
			<title>Dynamischer Verbinder.162</title>
			<path d="M0 582.5 L-31.18 582.5 A28.3465 28.3465 -180 0 0 -59.53 610.85 L-59.53 666.56 A28.3465 28.3465 0 0 1 -87.87
						 694.91 L-187.09 694.91" class="st18"/>
		</g>
	</g>
</svg>
